<svg width="32" height="32" viewBox="0 0 32 32" fill="none" xmlns="http://www.w3.org/2000/svg">
  <rect width="32" height="32" rx="6" fill="white"/>
  <path d="M8 8h10l6 6v12a2 2 0 01-2 2H8a2 2 0 01-2-2V10a2 2 0 012-2z" stroke="#0d9488" stroke-width="2" fill="none"/>
  <path d="M18 8v6h6" stroke="#0d9488" stroke-width="2" fill="none"/>
  <circle cx="12" cy="20" r="2" fill="#0d9488"/>
  <path d="M15 19c0 0 1.5-2 4-2s4 2 4 2" stroke="#0d9488" stroke-width="1.5" fill="none"/>
  <path d="M15 22c0 0 1.5 2 4 2s4-2 4-2" stroke="#0d9488" stroke-width="1.5" fill="none"/>
</svg>
